HIERARCHY
ROOT hip
{
  OFFSET 0 0 0
  CHANNELS 6 Xposition Yposition Zposition Zrotation Yrotation Xrotation
  JOINT abdomen
  {
    OFFSET 0 20.6881 -0.73152
    CHANNELS 3 Zrotation Xrotation Yrotation
    JOINT chest
    {
      OFFSET 0 11.7043 -0.48768
      CHANNELS 3 Zrotation Xrotation Yrotation
      JOINT neck
      {
        OFFSET 0 22.1894 -2.19456
        CHANNELS 3 Zrotation Xrotation Yrotation
        JOINT head
        {
          OFFSET -0.24384 7.07133 1.2192
          CHANNELS 3 Zrotation Xrotation Yrotation
          JOINT leftEye
          {
            OFFSET 4.14528 8.04674 8.04672
            CHANNELS 3 Zrotation Xrotation Yrotation
            End Site
            {
              OFFSET 1 0 0
            }
          }
          JOINT rightEye
          {
            OFFSET -3.6576 8.04674 8.04672
            CHANNELS 3 Zrotation Xrotation Yrotation
            End Site
            {
              OFFSET 1 0 0
            }
          }
        }
      }
      JOINT rCollar
      {
        OFFSET -2.68224 19.2634 -4.8768
        CHANNELS 3 Zrotation Xrotation Yrotation
        JOINT rShldr
        {
          OFFSET -8.77824 -1.95073 1.46304
          CHANNELS 3 Zrotation Xrotation Yrotation
          JOINT rForeArm
          {
            OFFSET -28.1742 -1.7115 0.48768
            CHANNELS 3 Zrotation Xrotation Yrotation
            JOINT rHand
            {
              OFFSET -22.5879 0.773209 7.07136
              CHANNELS 3 Zrotation Xrotation Yrotation
              JOINT rThumb1
              {
                OFFSET -1.2192 -0.487915 3.41376
                CHANNELS 3 Zrotation Xrotation Yrotation
                JOINT rThumb2
                {
                  OFFSET -3.37035 -0.52449 3.41376
                  CHANNELS 3 Zrotation Xrotation Yrotation
                  End Site
                  {
                    OFFSET -1.78271 -1.18214 1.43049
                  }
                }
              }
              JOINT rIndex1
              {
                OFFSET -7.75947 0.938293 5.60832
                CHANNELS 3 Zrotation Xrotation Yrotation
                JOINT rIndex2
                {
                  OFFSET -2.54057 -0.884171 1.56538
                  CHANNELS 3 Zrotation Xrotation Yrotation
                  End Site
                  {
                    OFFSET -1.62519 -0.234802 1.16502
                  }
                }
              }
              JOINT rMid1
              {
                OFFSET -8.24714 1.18213 3.41376
                CHANNELS 3 Zrotation Xrotation Yrotation
                JOINT rMid2
                {
                  OFFSET -3.10165 -0.590103 1.0647
                  CHANNELS 3 Zrotation Xrotation Yrotation
                  End Site
                  {
                    OFFSET -2.48547 -0.328903 0.83742
                  }
                }
              }
              JOINT rRing1
              {
                OFFSET -8.82822 0.546677 1.51678
                CHANNELS 3 Zrotation Xrotation Yrotation
                JOINT rRing2
                {
                  OFFSET -2.60934 -0.819778 -0.0198488
                  CHANNELS 3 Zrotation Xrotation Yrotation
                  End Site
                  {
                    OFFSET -2.33842 -0.294052 0.168128
                  }
                }
              }
              JOINT rPinky1
              {
                OFFSET -8.27202 -0.0477905 -0.4584
                CHANNELS 3 Zrotation Xrotation Yrotation
                JOINT rPinky2
                {
                  OFFSET -1.82734 -0.647385 -0.700984
                  CHANNELS 3 Zrotation Xrotation Yrotation
                  End Site
                  {
                    OFFSET -1.69225 -0.51767 -0.607171
                  }
                }
              }
            }
          }
        }
      }
      JOINT lCollar
      {
        OFFSET 2.68224 19.2634 -4.8768
        CHANNELS 3 Zrotation Xrotation Yrotation
        JOINT lShldr
        {
          OFFSET 8.77824 -1.95073 1.46304
          CHANNELS 3 Zrotation Xrotation Yrotation
          JOINT lForeArm
          {
            OFFSET 28.1742 -1.7115 0.48768
            CHANNELS 3 Zrotation Xrotation Yrotation
            JOINT lHand
            {
              OFFSET 22.5879 0.773209 7.07136
              CHANNELS 3 Zrotation Xrotation Yrotation
              JOINT lThumb1
              {
                OFFSET 1.2192 -0.487915 3.41376
                CHANNELS 3 Zrotation Xrotation Yrotation
                JOINT lThumb2
                {
                  OFFSET 3.37035 -0.52449 3.41376
                  CHANNELS 3 Zrotation Xrotation Yrotation
                  End Site
                  {
                    OFFSET 1.78271 -1.18214 1.43049
                  }
                }
              }
              JOINT lIndex1
              {
                OFFSET 7.75947 0.938293 5.60832
                CHANNELS 3 Zrotation Xrotation Yrotation
                JOINT lIndex2
                {
                  OFFSET 2.54057 -0.884171 1.56538
                  CHANNELS 3 Zrotation Xrotation Yrotation
                  End Site
                  {
                    OFFSET 1.62519 -0.234802 1.16502
                  }
                }
              }
              JOINT lMid1
              {
                OFFSET 8.24714 1.18213 3.41376
                CHANNELS 3 Zrotation Xrotation Yrotation
                JOINT lMid2
                {
                  OFFSET 3.10165 -0.590103 1.0647
                  CHANNELS 3 Zrotation Xrotation Yrotation
                  End Site
                  {
                    OFFSET 2.48547 -0.328903 0.83742
                  }
                }
              }
              JOINT lRing1
              {
                OFFSET 8.82822 0.546677 1.51678
                CHANNELS 3 Zrotation Xrotation Yrotation
                JOINT lRing2
                {
                  OFFSET 2.60934 -0.819778 -0.0198488
                  CHANNELS 3 Zrotation Xrotation Yrotation
                  End Site
                  {
                    OFFSET 2.33842 -0.294052 0.168128
                  }
                }
              }
              JOINT lPinky1
              {
                OFFSET 8.27202 -0.0477905 -0.4584
                CHANNELS 3 Zrotation Xrotation Yrotation
                JOINT lPinky2
                {
                  OFFSET 1.82734 -0.647385 -0.700984
                  CHANNELS 3 Zrotation Xrotation Yrotation
                  End Site
                  {
                    OFFSET 1.69225 -0.51767 -0.607171
                  }
                }
              }
            }
          }
        }
      }
    }
  }
  JOINT rButtock
  {
    OFFSET -8.77824 4.35084 1.2192
    CHANNELS 3 Zrotation Xrotation Yrotation
    JOINT rThigh
    {
      OFFSET 0 -1.70687 -2.19456
      CHANNELS 3 Zrotation Xrotation Yrotation
      JOINT rShin
      {
        OFFSET 0 -36.8199 0.73152
        CHANNELS 3 Zrotation Xrotation Yrotation
        JOINT rFoot
        {
          OFFSET 0.73152 -45.1104 -5.12064
          CHANNELS 3 Zrotation Xrotation Yrotation
          End Site
          {
            OFFSET -1.1221 -3.69964 12.103
          }
        }
      }
    }
  }
  JOINT lButtock
  {
    OFFSET 8.77824 4.35084 1.2192
    CHANNELS 3 Zrotation Xrotation Yrotation
    JOINT lThigh
    {
      OFFSET 0 -1.70687 -2.19456
      CHANNELS 3 Zrotation Xrotation Yrotation
      JOINT lShin
      {
        OFFSET 0 -36.8199 0.73152
        CHANNELS 3 Zrotation Xrotation Yrotation
        JOINT lFoot
        {
          OFFSET -0.73152 -45.1104 -5.12064
          CHANNELS 3 Zrotation Xrotation Yrotation
          End Site
          {
            OFFSET 1.1221 -3.69964 12.103
          }
        }
      }
    }
  }
}
MOTION
Frames:	6
Frame Time:	0.00833333
115.353 80.5248 -34.367 15.1347 -77.4446 -8.7752 -11.1375 26.1074 -11.5463 1.10131 -0.381643 -4.1934 -4.59556 6.05091 -1.91485 20.3515 -3.65769 -3.31911 -0.0 0.0 0.0 -0.0 0.0 0.0 3.95132e-14 -1.30548e-12 -1.58633e-13 44.2019 36.7344 2.72405 -27.1012 -26.6828 61.9745 -0.13056 -10.2547 -1.45691 1.28037e-09 5.28935e-10 -2.89877e-09 2.23985e-09 9.27043e-10 -5.00442e-09 1.28038e-09 5.28928e-10 -2.89877e-09 7.73091 5.47488 0.417314 1.28038e-09 5.28928e-10 -2.89877e-09 2.90554 0.965183 0.102902 1.28038e-09 5.28927e-10 -2.89877e-09 10.2786 0.731801 0.0259123 1.28037e-09 5.28931e-10 -2.89877e-09 2.22167 -0.733487 -0.20892 3.94069e-14 -1.30547e-12 -1.58959e-13 -6.87444 16.9212 -41.3965 27.6623 -28.8855 -65.4891 1.23622 -29.8763 4.63099 -1.38809e-09 -9.88534e-10 9.33378e-10 -2.41344e-09 -1.69472e-09 1.57661e-09 -1.38811e-09 -9.88546e-10 9.33386e-10 -7.73091 5.47488 -0.417314 -1.3881e-09 -9.88542e-10 9.33371e-10 -2.90554 0.965183 -0.102902 -1.3881e-09 -9.88545e-10 9.33384e-10 -10.2786 0.731801 -0.0259123 -1.38808e-09 -9.88538e-10 9.33362e-10 -2.22167 -0.733487 0.20892 -2.03217e-16 0.0 -3.88251e-19 4.44351 -48.3003 20.73 -1.04463 59.9158 1.57211 -5.91565 -22.9487 -10.976 2.03217e-16 0.0 3.88251e-19 -0.0171785 -23.4519 6.88446 0.287859 41.5203 -1.04927 1.47303 -18.2745 2.25142
113.757 80.7266 -34.2722 14.5195 -77.8439 -8.7897 -10.687 25.0413 -12.3947 0.999453 -0.228649 -4.36968 -4.78641 6.09575 -2.04951 20.1468 -2.21357 -3.91203 -0.0 0.0 0.0 -0.0 0.0 0.0 3.46594e-14 -9.42013e-13 -1.13402e-13 44.024 36.8391 1.53883 -27.1382 -26.8121 62.1812 -0.138115 -10.5397 -1.49836 1.20928e-09 6.93918e-10 -2.29965e-09 2.11179e-09 1.21083e-09 -3.96827e-09 1.20929e-09 6.93912e-10 -2.29965e-09 7.73091 5.47488 0.417314 1.20928e-09 6.93913e-10 -2.29965e-09 2.90554 0.965183 0.102902 1.20929e-09 6.93911e-10 -2.29965e-09 10.2786 0.731801 0.0259123 1.20928e-09 6.93913e-10 -2.29965e-09 2.22167 -0.733487 -0.20892 3.45447e-14 -9.41996e-13 -1.13751e-13 -6.99243 17.8828 -41.3488 27.6767 -28.9514 -65.5947 1.22546 -29.7614 4.60944 -1.16253e-09 -8.10448e-10 4.41037e-10 -2.01148e-09 -1.38359e-09 7.31417e-10 -1.16255e-09 -8.10461e-10 4.41052e-10 -7.73091 5.47488 -0.417314 -1.16254e-09 -8.10455e-10 4.41026e-10 -2.90554 0.965183 -0.102902 -1.16255e-09 -8.10459e-10 4.41046e-10 -10.2786 0.731801 -0.0259123 -1.16252e-09 -8.10448e-10 4.41016e-10 -2.22167 -0.733487 0.20892 -2.03217e-16 0.0 -3.88251e-19 4.10785 -46.2521 20.1605 -0.88058 57.0247 1.40195 -5.85403 -22.7211 -10.9763 2.03217e-16 0.0 3.88251e-19 0.231696 -20.9198 6.72825 0.261902 40.2151 -1.01928 1.64984 -18.7057 2.66035
112.111 80.8931 -34.1809 14.1858 -78.2075 -9.086 -10.3816 23.8698 -13.2129 0.932545 -0.0707287 -4.54559 -4.96477 6.18649 -2.24478 19.8542 -0.938966 -4.59144 -0.0 0.0 0.0 -0.0 0.0 0.0 3.34553e-14 -7.86799e-13 -1.0953e-13 43.8632 36.9865 0.344763 -27.1869 -26.9832 62.4469 -0.145178 -10.7982 -1.536 1.13774e-09 7.2918e-10 -1.60338e-09 1.98209e-09 1.26861e-09 -2.76468e-09 1.13774e-09 7.29176e-10 -1.60338e-09 7.73091 5.47488 0.417314 1.13774e-09 7.29176e-10 -1.60338e-09 2.90554 0.965183 0.102902 1.13774e-09 7.29174e-10 -1.60338e-09 10.2786 0.731801 0.0259123 1.13774e-09 7.29174e-10 -1.60338e-09 2.22167 -0.733487 -0.20892 3.33384e-14 -7.86781e-13 -1.09878e-13 -7.2241 19.0719 -41.1574 27.7142 -29.1174 -65.8421 1.2201 -29.704 4.59868 -8.97845e-10 -7.68925e-10 2.85041e-10 -1.55063e-09 -1.31458e-09 4.68375e-10 -8.97866e-10 -7.68937e-10 2.8506e-10 -7.73091 5.47488 -0.417314 -8.97852e-10 -7.6893e-10 2.85029e-10 -2.90554 0.965183 -0.102902 -8.97858e-10 -7.68935e-10 2.85052e-10 -10.2786 0.731801 -0.0259123 -8.97834e-10 -7.68922e-10 2.85019e-10 -2.22167 -0.733487 0.20892 -2.03217e-16 0.0 -3.88251e-19 3.74825 -44.3031 19.5466 -0.767164 54.6411 1.27907 -5.61585 -22.1523 -10.711 2.03217e-16 0.0 3.88251e-19 0.409628 -18.3547 6.61304 0.234886 38.8345 -0.989728 1.80905 -19.0627 3.02591
110.425 81.0345 -34.0959 14.1762 -78.5834 -9.6834 -10.2545 22.5426 -13.9959 0.893155 0.0974182 -4.71976 -5.107 6.32067 -2.50949 19.4098 0.178078 -5.37707 -0.0 0.0 0.0 -0.0 0.0 0.0 3.87371e-14 -9.96355e-13 -1.82835e-13 43.7474 37.2098 -0.926189 -27.2519 -27.2162 62.8065 -0.151624 -11.0322 -1.57012 1.07846e-09 5.27921e-10 -5.8102e-10 1.87071e-09 9.13248e-10 -9.981e-10 1.07846e-09 5.27918e-10 -5.81023e-10 7.73091 5.47488 0.417314 1.07846e-09 5.27917e-10 -5.81019e-10 2.90554 0.965183 0.102902 1.07846e-09 5.27916e-10 -5.8102e-10 10.2786 0.731801 0.0259123 1.07846e-09 5.27915e-10 -5.81018e-10 2.22167 -0.733487 -0.20892 3.86299e-14 -9.96344e-13 -1.83137e-13 -7.60821 20.5921 -40.7998 27.7804 -29.4225 -66.3037 1.22497 -29.7563 4.60848 -5.15998e-10 -9.90573e-10 7.33833e-10 -9.02973e-10 -1.71253e-09 1.25327e-09 -5.16016e-10 -9.90583e-10 7.33851e-10 -7.73091 5.47488 -0.417314 -5.16003e-10 -9.90578e-10 7.33823e-10 -2.90554 0.965183 -0.102902 -5.1601e-10 -9.90581e-10 7.33842e-10 -10.2786 0.731801 -0.0259123 -5.15987e-10 -9.90569e-10 7.33813e-10 -2.22167 -0.733487 0.20892 -2.03217e-16 0.0 -3.88251e-19 3.29856 -42.4555 18.7895 -0.692704 52.8446 1.18873 -5.10445 -20.9783 -10.03 2.03217e-16 0.0 3.88251e-19 0.511396 -15.7103 6.57322 0.205777 37.3251 -0.959671 1.9304 -19.3767 3.29902
108.714 81.1576 -34.0201 14.4927 -78.9824 -10.5671 -10.2569 21.0872 -14.7755 0.870213 0.284393 -4.89813 -5.23967 6.49556 -2.84675 18.8738 1.16223 -6.27723 -0.0 0.0 0.0 -0.0 0.0 0.0 4.95938e-14 -1.43416e-12 -3.06402e-13 43.6943 37.5048 -2.26535 -27.3287 -27.5015 63.2563 -0.158181 -11.2661 -1.60426 9.87623e-10 1.64459e-10 7.9704e-10 1.7017e-09 2.74169e-10 1.38264e-09 9.87625e-10 1.64458e-10 7.97037e-10 7.73091 5.47488 0.417314 9.87623e-10 1.64457e-10 7.97042e-10 2.90554 0.965183 0.102902 9.87628e-10 1.64455e-10 7.97041e-10 10.2786 0.731801 0.0259123 9.87623e-10 1.64455e-10 7.97045e-10 2.22167 -0.733487 -0.20892 4.95037e-14 -1.43416e-12 -3.06625e-13 -8.21103 22.4351 -40.3225 27.8616 -29.8274 -66.9411 1.23813 -29.8974 4.63492 -8.43436e-13 -1.35993e-09 1.53866e-09 -3.44599e-11 -2.37418e-09 2.65672e-09 -8.56482e-13 -1.35994e-09 1.53868e-09 -7.73091 5.47488 -0.417314 -8.46961e-13 -1.35994e-09 1.53866e-09 -2.90554 0.965183 -0.102902 -8.53484e-13 -1.35994e-09 1.53867e-09 -10.2786 0.731801 -0.0259123 -8.3486e-13 -1.35993e-09 1.53865e-09 -2.22167 -0.733487 0.20892 -2.03217e-16 0.0 -3.88251e-19 2.77393 -40.6153 17.8606 -0.643066 51.4742 1.11779 -4.41082 -19.3228 -9.01891 2.03217e-16 0.0 3.88251e-19 0.535626 -12.9924 6.58096 0.176587 35.7173 -0.928669 2.0143 -19.651 3.48572
106.998 81.2717 -33.9468 15.1715 -79.3935 -11.7525 -10.3624 19.6035 -15.5453 0.889024 0.47178 -5.07938 -5.39213 6.71821 -3.23485 18.3412 1.96628 -7.24162 -0.0 0.0 0.0 -0.0 0.0 0.0 6.03269e-14 -1.85043e-12 -4.1983e-13 43.644 37.7977 -3.53586 -27.4041 -27.7936 63.7267 -0.164248 -11.4765 -1.63505 8.69496e-10 -1.76645e-10 1.99347e-09 1.48711e-09 -3.24656e-10 3.44914e-09 8.69497e-10 -1.76644e-10 1.99347e-09 7.73091 5.47488 0.417314 8.69496e-10 -1.76645e-10 1.99347e-09 2.90554 0.965183 0.102902 8.69501e-10 -1.76646e-10 1.99347e-09 10.2786 0.731801 0.0259123 8.69497e-10 -1.76647e-10 1.99348e-09 2.22167 -0.733487 -0.20892 6.02524e-14 -1.85044e-12 -4.19975e-13 -8.94492 24.4158 -39.7764 27.9398 -30.2552 -67.6377 1.25012 -30.0249 4.65888 4.5995e-10 -1.67874e-09 2.2821e-09 7.41527e-10 -2.9461e-09 3.95276e-09 4.59943e-10 -1.67874e-09 2.28211e-09 -7.73091 5.47488 -0.417314 4.59949e-10 -1.67874e-09 2.2821e-09 -2.90554 0.965183 -0.102902 4.59942e-10 -1.67874e-09 2.2821e-09 -10.2786 0.731801 -0.0259123 4.59956e-10 -1.67873e-09 2.28209e-09 -2.22167 -0.733487 0.20892 -2.03217e-16 0.0 -3.88251e-19 2.33205 -38.8353 16.9965 -0.61069 50.4722 1.06607 -3.76536 -17.6687 -7.98846 2.03217e-16 0.0 3.88251e-19 0.477558 -10.3024 6.57448 0.14863 34.1083 -0.899643 2.09778 -19.8143 3.6891
